<svg id="Layer_1" data-name="Layer 1" xmlns="http://www.w3.org/2000/svg" viewBox="0 0 556 150"><defs><style>.cls-1{fill:#fff;}</style></defs><title>Denali_Logo_White</title><path class="cls-1" d="M194,99.83c0-22.46,11.59-36.59,29.43-36.59,10.35,0,18.36,5.14,21.94,13.09h.39V41.68A17.68,17.68,0,0,1,263.43,24h0a1.33,1.33,0,0,1,1.33,1.33v109.1a1.33,1.33,0,0,1-1.33,1.33H247.35a1.33,1.33,0,0,1-1.33-1.33V123.52h-.33c-3.52,7.88-11.78,13.09-22.33,13.09C205.52,136.61,194,122.42,194,99.83Zm19.46.07c0,13.15,6.31,21.35,16.21,21.35s16.21-8.33,16.21-21.29-6.38-21.35-16.21-21.35S213.46,86.87,213.46,99.89Z"/><path class="cls-1" d="M339.81,113.89a1.18,1.18,0,0,1,1.15,1.42C338.23,128.38,325.57,137,308.73,137c-21.81,0-35.15-14-35.15-36.78S287,62.85,308,62.85c20.64,0,33.79,13.8,33.79,35.61v4.69a1.17,1.17,0,0,1-1.17,1.17H293.5a1.17,1.17,0,0,0-1.17,1.17h0c0,10.35,6.71,17.32,16.73,17.32,6.85,0,12.33-3.1,14.39-8.21a1.15,1.15,0,0,1,1.07-.7Zm-46-21.35h28.37a1.18,1.18,0,0,0,1.17-1.29C322.54,82.61,316.59,77,308.21,77s-14.4,5.71-15.55,14.15A1.18,1.18,0,0,0,293.82,92.54Z"/><path class="cls-1" d="M351.86,64.09h16A1.17,1.17,0,0,1,369,65.26V76.91h.39c4.1-9,11.39-13.87,22.39-13.87,15.88,0,24.87,10,24.87,26.76v44.79a1.17,1.17,0,0,1-1.17,1.17H398.86a1.17,1.17,0,0,1-1.17-1.17V93.77c0-9.5-4.43-14.91-13.41-14.91s-14.58,6.51-14.58,16v39.71a1.17,1.17,0,0,1-1.17,1.17H351.86a1.17,1.17,0,0,1-1.17-1.17V65.26A1.17,1.17,0,0,1,351.86,64.09Z"/><path class="cls-1" d="M424.29,115.13c0-13,10-20.38,28.25-21.48l16.8-1a1.17,1.17,0,0,0,1.1-1.17V87.78c0-6.9-4.75-10.68-12.56-10.68-6.51,0-11.17,3.25-12.44,8a1.16,1.16,0,0,1-1.12.86H429.13a1.18,1.18,0,0,1-1.17-1.3c1.23-13,13.38-21.81,30.71-21.81,18.42,0,30.47,9.44,30.47,23.76v48a1.17,1.17,0,0,1-1.17,1.17h-16a1.17,1.17,0,0,1-1.17-1.17v-9.9h-.39c-3.91,7.49-12.76,11.91-21.94,11.91C434.64,136.61,424.29,128,424.29,115.13Zm46.16-5.66v-4a1.17,1.17,0,0,0-1.25-1.17l-13.79,1c-7.94.52-12.17,3.65-12.17,8.92s4.49,8.59,11.39,8.59C463.42,122.74,470.45,117.27,470.45,109.46Z"/><path class="cls-1" d="M518.58,24h0a1.33,1.33,0,0,1,1.33,1.33v109.1a1.33,1.33,0,0,1-1.33,1.33H502.24a1.33,1.33,0,0,1-1.33-1.33V41.68A17.68,17.68,0,0,1,518.58,24Z"/><path class="cls-1" d="M533.19,68.09h16.67A1.17,1.17,0,0,1,551,69.26v48.67a17.84,17.84,0,0,1-17.84,17.84h0a1.17,1.17,0,0,1-1.17-1.17V69.26A1.17,1.17,0,0,1,533.19,68.09Z"/><path class="cls-1" d="M105.41,144.89l59.9-.09a3.68,3.68,0,0,0,3.18-5.53l-29.7-50.7a3.69,3.69,0,0,0-6.35,0l-30.2,50.79A3.68,3.68,0,0,0,105.41,144.89Z"/><path class="cls-1" d="M114.9,104.06l15.62-26.27a3.67,3.67,0,0,0,0-3.73L91.14,6.82a3.69,3.69,0,0,0-6.35,0L69,33.42a3.67,3.67,0,0,0,0,3.74l39.59,66.88A3.69,3.69,0,0,0,114.9,104.06Z"/><path class="cls-1" d="M60,47.83,5.52,139.45A3.68,3.68,0,0,0,8.69,145l79.36-.07a3.69,3.69,0,0,0,3.16-1.8l14.67-24.64a3.67,3.67,0,0,0,0-3.74L66.35,47.84A3.69,3.69,0,0,0,60,47.83Z"/><rect class="cls-1" x="532" y="43" width="19" height="19" rx="9.5" ry="9.5"/></svg>