<?xml version="1.0" encoding="UTF-8"?>
<svg width="26px" height="26px" viewBox="0 0 26 26" version="1.1" xmlns="http://www.w3.org/2000/svg" xmlns:xlink="http://www.w3.org/1999/xlink">
    <!-- Generator: Sketch 48.1 (47250) - http://www.bohemiancoding.com/sketch -->
    <title>Group 7</title>
    <desc>Created with Sketch.</desc>
    <defs>
        <circle id="path-1" cx="10" cy="10" r="10"></circle>
    </defs>
    <g id="Resources" stroke="none" stroke-width="1" fill="none" fill-rule="evenodd" transform="translate(-394.000000, -432.000000)">
        <g id="Group-7" transform="translate(397.000000, 435.000000)">
            <g id="Group-8">
                <g id="Oval-Copy">
                    <use fill="#FFFFFF" fill-rule="evenodd" xlink:href="#path-1"></use>
                    <circle stroke="#FFFFFF" stroke-width="3" cx="10" cy="10" r="11.5"></circle>
                    <use stroke="#016EFF" stroke-width="2" xlink:href="#path-1"></use>
                </g>
            </g>
            <g id="Group-9" transform="translate(3.000000, 2.000000)">
                <rect id="Rectangle-path" x="0" y="0" width="14" height="14"></rect>
                <rect id="Rectangle-path" x="0" y="0" width="14" height="14"></rect>
                <path d="M12.25,12.8333333 L1.75,12.8333333 C1.42916667,12.8333333 1.16666667,12.5708333 1.16666667,12.25 C1.16666667,11.9291667 1.42916667,11.6666667 1.75,11.6666667 L12.25,11.6666667 C12.5708333,11.6666667 12.8333333,11.9291667 12.8333333,12.25 C12.8333333,12.5708333 12.5708333,12.8333333 12.25,12.8333333 Z" id="Shape" fill="#016EFF" fill-rule="nonzero"></path>
                <path d="M3.675,7.4375 L6.5625,10.325 C6.79583333,10.5583333 7.175,10.5583333 7.37916667,10.325 L10.2666667,7.4375 C10.4708333,7.23333333 10.5291667,6.9125 10.3541667,6.67916667 C10.15,6.3875 9.7125,6.35833333 9.45,6.59166667 L7.58333333,8.51666667 L7.58333333,1.75 C7.58333333,1.42916667 7.32083333,1.16666667 7,1.16666667 C6.67916667,1.16666667 6.41666667,1.42916667 6.41666667,1.75 L6.41666667,8.51666667 L4.49166667,6.59166667 C4.22916667,6.32916667 3.82083333,6.35833333 3.5875,6.67916667 C3.44166667,6.9125 3.47083333,7.23333333 3.675,7.4375 Z" id="Shape" fill="#016EFF" fill-rule="nonzero"></path>
            </g>
        </g>
    </g>
</svg>