<svg xmlns="http://www.w3.org/2000/svg" width="40" height="50" viewBox="0 0 40 50">
  <g id="Layer_2" data-name="Layer 2">
    <g id="Layer_1-2" data-name="Layer 1">
      <g id="Group-3">
        <path id="Combined-Shape" d="M4,1A2.9,2.9,0,0,0,1,4V46a2.9,2.9,0,0,0,3,3H36a2.9,2.9,0,0,0,3-3V14.4a3.2,3.2,0,0,0-.8-2.1L28.2,1.9A3.1,3.1,0,0,0,26,1Z" fill="none" stroke="#016EFF" stroke-width="2"/>
        <g id="SVG" style="isolation: isolate">
          <g style="isolation: isolate">
            <path d="M6.2,22.4h4.4a2.9,2.9,0,0,1,3.1,3c0,2-1.4,3-3.3,3H8.8V31H6.2Zm2.6,4h1c.7,0,1.4-.1,1.4-.9s-.6-.9-1.2-.9H8.8Z" fill="#016EFF"/>
            <path d="M14.9,22.4h2.7L20.1,27h0V22.4h2.5V31H20l-2.6-4.7h0V31H14.9Z" fill="#016EFF"/>
            <path d="M30.5,30.1a2.9,2.9,0,0,1-2.4,1.1A4.1,4.1,0,0,1,24,26.8c0-3.3,2.3-4.6,4.2-4.6a3.8,3.8,0,0,1,4,3.2H29.6a1.2,1.2,0,0,0-1.2-1c-1.8,0-1.8,1.9-1.8,2.5a2,2,0,0,0,2,2.2,1.2,1.2,0,0,0,1.3-1H28.8V26.3h3.5V31H30.6Z" fill="#016EFF"/>
          </g>
        </g>
      </g>
    </g>
  </g>
</svg>
