<svg xmlns="http://www.w3.org/2000/svg" width="40" height="50" viewBox="0 0 40 50">
  <g id="Layer_2" data-name="Layer 2">
    <g id="Layer_1-2" data-name="Layer 1">
      <g id="Page-1">
        <g id="Resources">
          <g id="Group-6">
            <g id="Group-3-Copy">
              <path id="Combined-Shape" d="M4,1A2.9,2.9,0,0,0,1,4V46a2.9,2.9,0,0,0,3,3H36a2.9,2.9,0,0,0,3-3V14.4a3.2,3.2,0,0,0-.8-2.1L28.2,1.9A3.1,3.1,0,0,0,26,1Z" fill="none" stroke="#016EFF" stroke-width="2"/>
              <g id="Font" style="isolation: isolate">
                <g style="isolation: isolate">
                  <path d="M10.6,24.6H8.2V22.4h7.5v2.2H13.3V31H10.6Z" fill="#016EFF"/>
                  <path d="M18.9,24.6H16.5V22.4h7.4v2.2H21.5V31H18.9Z" fill="#016EFF"/>
                  <path d="M25.2,22.4h6.6v2.2h-4v1.1h3.4v2H27.8V31H25.2Z" fill="#016EFF"/>
                </g>
              </g>
            </g>
          </g>
        </g>
      </g>
    </g>
  </g>
</svg>
