<svg preserveAspectRatio="none" xmlns="http://www.w3.org/2000/svg" viewBox="0 0 375 87"><defs><style>.cls-1{fill:#044068;}.cls-2{fill:#3697f2;}</style></defs><title>Asset 1</title><g id="Layer_2" data-name="Layer 2"><g id="Layer_1-2" data-name="Layer 1"><path id="path-3" class="cls-1" d="M209.57,71.48s-95.18-23.33-209.4-5C-.22,66,.17,0,.17,0H374.91c-.61,0,.39,83.93,0,83.54C374.91,83.14,319.13,97.15,209.57,71.48Z"/><path class="cls-2" d="M200.21,69.32a.73.73,0,0,0-.58.05l.91.18A.71.71,0,0,0,200.21,69.32Z"/><path class="cls-2" d="M333.46,49.74h.07c1.34-.12,2.67-.27,4-.44a.75.75,0,1,0-.18-1.48c-1.31.16-2.63.3-3.95.42a.75.75,0,0,0-.67.82A.74.74,0,0,0,333.46,49.74Z"/><path class="cls-2" d="M341.38,48.75h.12c1.65-.26,3.31-.57,4.94-.9a.75.75,0,1,0-.3-1.47c-1.61.33-3.25.63-4.88.89a.75.75,0,0,0,.12,1.49Z"/><path class="cls-2" d="M351.16,46.75l.18,0c1.29-.33,2.59-.68,3.88-1a.75.75,0,0,0-.42-1.44c-1.27.37-2.55.71-3.82,1a.75.75,0,0,0,.18,1.48Z"/><path class="cls-2" d="M368.17,41a.71.71,0,0,0,.28-.06l3.7-1.5a.75.75,0,1,0-.57-1.39l-3.69,1.5a.75.75,0,0,0,.28,1.45Z"/><path class="cls-2" d="M358.83,44.53l.23,0c1.58-.52,3.18-1.09,4.74-1.68a.75.75,0,0,0,.43-1,.74.74,0,0,0-1-.43c-1.55.58-3.12,1.14-4.68,1.65a.75.75,0,0,0-.48,1A.76.76,0,0,0,358.83,44.53Z"/><path class="cls-2" d="M305.49,49.3l2.41.25,2.57.24h.07a.75.75,0,0,0,.06-1.5l-2.55-.23-2.4-.25a.75.75,0,0,0-.83.66A.77.77,0,0,0,305.49,49.3Z"/><path class="cls-2" d="M234.17,41.51h1.31c1.23,0,2.43,0,3.65,0h0a.76.76,0,0,0,.75-.72.74.74,0,0,0-.73-.77c-1.24,0-2.47-.1-3.7-.06h-1.33a.74.74,0,0,0-.73.76A.75.75,0,0,0,234.17,41.51Z"/><path class="cls-2" d="M208,53.17a.74.74,0,0,0-1,.25c-.36.59-.72,1.21-1.05,1.84l-1.35,2.59a.75.75,0,0,0,.32,1,.72.72,0,0,0,.34.09.76.76,0,0,0,.67-.41L207.25,56c.32-.6.65-1.19,1-1.74A.76.76,0,0,0,208,53.17Z"/><path class="cls-2" d="M226.24,42.33h.15c1.24-.25,2.54-.44,3.87-.58a.75.75,0,1,0-.15-1.49c-1.38.14-2.73.34-4,.6a.75.75,0,0,0,.15,1.48Z"/><path class="cls-2" d="M244.09,41.8c1.32.09,2.64.2,4,.32h.06a.75.75,0,0,0,.75-.68.76.76,0,0,0-.68-.82c-1.33-.12-2.66-.22-4-.31a.75.75,0,1,0-.1,1.49Z"/><path class="cls-2" d="M203.74,61.07a.76.76,0,0,0-1,.34c-.67,1.35-1.21,2.51-1.7,3.65a.76.76,0,0,0,.4,1,.72.72,0,0,0,.29.06.75.75,0,0,0,.69-.46c.48-1.12,1-2.25,1.67-3.57A.76.76,0,0,0,203.74,61.07Z"/><path class="cls-2" d="M323.5,50.26h0c1.68,0,3.37-.08,5-.16a.76.76,0,0,0,.72-.79.78.78,0,0,0-.79-.71c-1.63.08-3.3.14-5,.16a.75.75,0,0,0,0,1.5Z"/><path class="cls-2" d="M213.1,46.56a24.88,24.88,0,0,0-3,2.78.75.75,0,0,0,0,1.06.79.79,0,0,0,.52.2.71.71,0,0,0,.54-.24A26.18,26.18,0,0,1,214,47.74a.75.75,0,0,0-.92-1.18Z"/><path class="cls-2" d="M222.13,42.65a.74.74,0,0,0-.95-.46,30.31,30.31,0,0,0-4.66,2.1.75.75,0,0,0-.29,1,.75.75,0,0,0,.65.39.71.71,0,0,0,.37-.1,28.69,28.69,0,0,1,4.43-2A.75.75,0,0,0,222.13,42.65Z"/><path class="cls-2" d="M279.72,46.08l3.95.53h.11a.75.75,0,0,0,.1-1.49l-4-.54a.75.75,0,1,0-.2,1.49Z"/><path class="cls-2" d="M297.55,48.39l4,.47h.08a.75.75,0,0,0,.09-1.5l-4-.46a.75.75,0,0,0-.84.65A.74.74,0,0,0,297.55,48.39Z"/><path class="cls-2" d="M252,42.51c1.36.15,2.72.3,4.08.47l.86.1h.1a.75.75,0,0,0,.08-1.49l-.86-.1c-1.37-.17-2.73-.32-4.1-.47a.75.75,0,0,0-.83.66A.75.75,0,0,0,252,42.51Z"/><path class="cls-2" d="M315.48,50.11c1.34.07,2.68.11,4,.14h0a.75.75,0,0,0,0-1.5c-1.32,0-2.64-.07-4-.13a.77.77,0,0,0-.78.71A.75.75,0,0,0,315.48,50.11Z"/><path class="cls-2" d="M287.64,47.14l4.95.64h.09a.75.75,0,0,0,.1-1.5l-4.95-.64a.75.75,0,1,0-.19,1.49Z"/><path class="cls-2" d="M269.83,44.74l4.94.66h.1a.76.76,0,0,0,.75-.65.75.75,0,0,0-.65-.84L270,43.25a.75.75,0,0,0-.85.64A.77.77,0,0,0,269.83,44.74Z"/><path class="cls-2" d="M261.91,43.7l4,.51h.1a.75.75,0,0,0,.74-.66.74.74,0,0,0-.64-.84l-4-.51a.75.75,0,1,0-.19,1.49Z"/><path class="cls-2" d="M336,59.85a251,251,0,0,1-28.79-.93c-6.05-.55-12.2-1.45-18.15-2.32-4.74-.69-9.64-1.41-14.47-1.94-10.44-1.16-22.7-2-34.46.12-10.36,1.89-20,10.08-25.17,18l1.57.35c5-7.32,14.25-15.07,23.87-16.83,11.57-2.12,23.69-1.24,34-.1,4.81.53,9.7,1.25,14.42,1.94,6,.87,12.14,1.77,18.23,2.32a251.9,251.9,0,0,0,29,.94c13.87-.37,27-3,38.82-6.13V53.67C363.1,56.81,349.91,59.48,336,59.85Z"/><path class="cls-2" d="M324.72,72.11l-1.19-.2-12.3-2c-9.36-1.52-19-3.08-28.58-4.46-1.44-.2-2.82-.42-4.17-.62-8.48-1.31-15.79-2.44-26.72-.5-7.66,1.36-12.55,5.73-14.6,13l1.47.28c1.9-6.67,6.3-10.54,13.39-11.79,10.69-1.9,17.89-.79,26.23.5l4.18.63c9.53,1.37,19.21,2.94,28.56,4.45,4.1.66,8.2,1.33,12.31,2l1.18.19c.85.14,1.7.29,2.56.39,14,1.7,38.41,4.51,48,4.69v-1.5c-9.47-.18-33.81-3-47.78-4.68C326.39,72.39,325.56,72.25,324.72,72.11Z"/><path class="cls-2" d="M90.92,40.24c-1-5.69-2.24-12.13-7.58-15.08-4.66-2.57-10.3-1-15.2.91-2.34.91-4.71,1.89-7,2.83-8.3,3.43-16.88,7-25.87,7.71-5.46.46-11.77-1.64-17.88-3.68C11.51,31,5.51,29,0,29.14v1c5.21-.15,11,1.78,17,3.78,6.2,2.07,12.61,4.19,18.28,3.73,9.14-.75,17.79-4.33,26.16-7.78,2.29-.95,4.65-1.93,7-2.83,4.69-1.81,10-3.34,14.36-1,4.92,2.72,6.07,8.91,7.08,14.38.25,1.36.49,2.64.78,3.86,1.74,7.37,2,9.86,2.11,15.16h1c-.14-5.41-.37-7.92-2.14-15.4C91.41,42.86,91.17,41.58,90.92,40.24Z"/><path class="cls-2" d="M147.71,52.69c-7-.26-19.63,2.12-23.81,7.66l1.22.06c4.31-4.82,16.18-7,22.55-6.72,7.56.29,13.19,3.94,15.65,10.07l1.11.13C162,57.17,155.77,53,147.71,52.69Z"/><path class="cls-2" d="M181.75,53.22c-6.29-12.72-19.48-18.06-29.44-20.3a81.75,81.75,0,0,0-24.1-1.79c-3.37.25-7.26.75-10.64,2.57-4.81,2.6-7.66,7.41-9.21,11l-.51,1.19c-2.71,6.24-3.16,7.3-3.89,13.71l1,0c.7-6.17,1.11-7.13,3.8-13.34l.52-1.19c1.48-3.43,4.21-8,8.77-10.5,3.21-1.73,7-2.21,10.23-2.46a81.16,81.16,0,0,1,23.81,1.77c9.75,2.2,22.65,7.41,28.77,19.77a24.81,24.81,0,0,1,2.58,12.88l1,.15A25.71,25.71,0,0,0,181.75,53.22Z"/><path class="cls-2" d="M72.78,44l-.09-.06A23.85,23.85,0,0,0,60.23,40.6C53.4,40.48,46.6,41.83,40,43.14a126,126,0,0,1-15.13,2.37C17.17,46.07,8,46.75,0,50.17v1.1c8-3.51,17.2-4.2,25-4.77a125.34,125.34,0,0,0,15.25-2.38c6.52-1.3,13.27-2.64,20-2.52a22.85,22.85,0,0,1,11.94,3.18l.09,0c3.67,2.32,10.21,6.47,12,14.64h1C83.42,50.73,76.34,46.24,72.78,44Z"/><path class="cls-2" d="M21.67,55.45c-1.89.31-3.78.79-5.61,1.26l-1.56.39A32.23,32.23,0,0,0,.08,64.47c0,.57,0,1,0,1.35a31,31,0,0,1,14.62-7.75l1.57-.4c1.81-.45,3.67-.93,5.52-1.23,10.34-1.71,19.18-3,30.89-2.38,3.39.17,11.2,1.09,16.63,5.74l1.41,0c-5.67-5.46-14.32-6.51-18-6.69C41,52.47,32.07,53.73,21.67,55.45Z"/></g></g></svg>
