<?xml version="1.0" encoding="UTF-8"?>
<svg width="40px" height="50px" viewBox="0 0 40 50" version="1.1" xmlns="http://www.w3.org/2000/svg" xmlns:xlink="http://www.w3.org/1999/xlink">
    <!-- Generator: Sketch 47.1 (45422) - http://www.bohemiancoding.com/sketch -->
    <title>Group 3</title>
    <desc>Created with Sketch.</desc>
    <defs></defs>
    <g id="Page-1" stroke="none" stroke-width="1" fill="none" fill-rule="evenodd">
        <g id="Resources" transform="translate(-370.000000, -666.000000)" stroke-width="2" stroke="#FEA92E">
            <g id="Group-5" transform="translate(370.000000, 666.000000)">
                <g id="Group-3">
                    <g id="Group-14" transform="translate(7.000000, 17.000000)">
                        <polygon id="Path-4-Copy" points="5.93174831 0 19.9303833 0 25.9556182 6.0021047 12.9468754 20 0 6.06397208"></polygon>
                        <polygon id="Path-4" points="13 1 18 6 13 18 8 6"></polygon>
                        <path d="M0,6 L8.29481927,6" id="Path-5"></path>
                        <path d="M17,6 L25.2948193,6" id="Path-5-Copy"></path>
                    </g>
                    <path d="M4,1 C2.34314575,1 1,2.34314575 1,4 L1,46 C1,47.6568542 2.34314575,49 4,49 L36,49 C37.6568542,49 39,47.6568542 39,46 L39,14.3932459 C39,13.6176917 38.6996526,12.8722724 38.1619658,12.3133652 L28.1633283,1.92011925 C27.5977509,1.33222065 26.8171459,1 26.0013625,1 L4,1 Z" id="Combined-Shape"></path>
                </g>
            </g>
        </g>
    </g>
</svg>