<?xml version="1.0" encoding="UTF-8"?>
<svg preserveAspectRatio="none" width="1440px" height="275px" viewBox="0 0 1440 275" version="1.1" xmlns="http://www.w3.org/2000/svg" xmlns:xlink="http://www.w3.org/1999/xlink">
    <!-- Generator: Sketch 51.1 (57501) - http://www.bohemiancoding.com/sketch -->
    <title>Map Texture 6 Copy 2 + Map Texture 5 Copy 2 + Map Texture 4 Copy 2 Mask</title>
    <desc>Created with Sketch.</desc>
    <defs>
        <rect id="path-1" x="0" y="0" width="1440" height="282"></rect>
        <path d="M634.404977,60.413045 C634.404977,60.413045 1001.64552,150.420956 1442.33377,79.9146258 C1443.83279,81.4148243 1442.33377,1089 1442.33377,1089 L2.60338091,1089 C2.60338091,1089 -1.14515446,12.4096925 0.353859948,13.9098911 C0.353859948,13.9098911 211.703899,-38.5950571 634.404977,60.413045 Z" id="path-3"></path>
    </defs>
    <g id="1.-Landing-Page" stroke="none" stroke-width="1" fill="none" fill-rule="evenodd">
        <g id="Map-Texture-6-Copy-2-+-Map-Texture-5-Copy-2-+-Map-Texture-4-Copy-2-Mask" transform="translate(0.000000, -7.000000)">
            <mask id="mask-2" fill="white">
                <use xlink:href="#path-1"></use>
            </mask>
            <g id="Mask" fill-rule="nonzero"></g>
            <g mask="url(#mask-2)">
                <g transform="translate(-2.000000, 7.000000)">
                    <mask id="mask-4" fill="white">
                        <use xlink:href="#path-3"></use>
                    </mask>
                    <use id="Mask" stroke="none" fill="#1A54A4" fill-rule="evenodd" xlink:href="#path-3"></use>
                    <g id="Map-Texture-6-Copy-2" stroke="none" stroke-width="1" fill="none" fill-rule="evenodd" mask="url(#mask-4)" stroke-linecap="round" stroke-linejoin="round">
                        <g transform="translate(1144.000000, 12.000000)" stroke="#3697F2" stroke-width="1.5">
                            <path d="M227.7501,77.0607 C216.9511,84.6627 184.7951,109.1857 176.2091,119.8147 C165.1221,133.5457 160.1711,149.1247 161.3251,166.3147 C162.2131,179.5557 164.7071,192.7267 167.0671,205.8267 C168.0401,211.2327 170.0391,216.5987 172.4351,221.5687 C176.7101,230.4337 189.0391,234.5467 198.7331,230.4397 C209.7021,225.7917 220.4411,220.6047 231.3321,215.7787 C243.6221,210.3357 256.0641,205.5357 269.7881,204.9507 C282.0741,204.4227 294.3601,203.6397 306.5941,202.4377 C316.2301,201.4957 325.1981,198.3657 332.4171,191.4367 C344.3821,179.9607 354.0611,166.8617 361.1081,151.7777 C365.7921,141.7557 367.3481,131.2367 365.5551,120.5107 C364.1491,112.1237 359.7821,104.7847 354.8431,97.8007 C349.3371,90.0207 343.0401,82.7877 339.3021,73.7677 C334.1891,61.4367 332.1771,49.0837 337.2551,36.3177 C339.9761,29.4697 343.2821,22.8377 345.7491,15.9027 C347.4801,11.0387 348.7301,5.8767 349.3261,0.7497" id="Stroke-1"></path>
                            <path d="M21.7501,92.0607 C29.0051,104.5037 35.1811,116.7107 38.3741,130.8257 C41.7471,145.7417 43.6371,160.9937 43.9971,176.2817 C44.1741,183.7917 44.1701,191.9117 48.6551,197.9387 C52.0201,202.4597 57.4851,205.0467 63.0281,206.0717 C70.2861,207.4127 78.1661,206.8437 85.3971,205.5357 C93.4131,204.0837 101.2511,200.9417 107.4101,195.6107 C117.5801,186.8077 121.8781,173.5457 126.1051,161.2337 C131.3121,146.0717 136.6041,130.9217 141.3001,115.5907 C145.6241,101.4757 155.2761,90.9297 167.0391,83.2107" id="Stroke-3"></path>
                            <path d="M37.7501,91.0607 C42.9531,106.3597 51.9291,135.7937 58.8751,150.5427 C63.2661,159.8697 70.1041,168.0357 81.2271,168.1107 C88.1191,168.1587 94.8051,165.1587 100.0831,160.7237 C111.5721,151.0737 117.5141,136.1097 119.1551,121.5207 C120.8621,106.3487 122.5091,102.2817 123.7501,87.0607" id="Stroke-5"></path>
                            <path d="M55.7501,90.0607 C55.4361,101.0517 55.7361,113.3117 60.7781,123.3667 C65.3871,132.5577 76.7511,139.4687 86.9641,135.3297 C104.4761,128.2307 97.7691,102.8907 94.7501,89.0607" id="Stroke-7"></path>
                            <path d="M0.7501,92.0607 C10.0151,100.7507 20.7291,113.6897 24.7671,125.8327 C29.0681,138.7547 29.8651,151.8827 25.3581,164.9317 C23.0511,171.6187 20.7681,178.4247 17.4471,184.6277 C12.1331,194.5587 15.6661,209.9937 25.0141,218.3287 C35.9061,228.0417 48.9291,232.3797 63.0831,233.7557 C81.2241,235.5137 99.2691,234.7057 117.0211,230.2857 C123.9241,228.5657 129.4911,225.0567 134.1391,219.1967 C142.8361,208.2307 143.5421,195.5887 143.7121,182.6117 C143.9901,161.1397 147.4571,140.3407 157.4781,121.0877 C162.6131,111.2147 170.4211,103.6377 179.3811,97.1457 C187.3521,91.3717 195.3131,85.5717 203.0061,79.4417" id="Stroke-9"></path>
                            <path d="M187.4923,192.2462 C189.7053,194.8622 192.1843,197.0762 194.9023,198.7282 C199.7653,201.6842 205.5373,202.8392 211.2213,203.0872 C225.0093,203.6882 238.2873,199.3202 251.5523,196.2382 C264.5263,193.2242 278.0173,190.5692 291.2963,189.4602 C321.2973,186.9542 342.9273,162.6082 348.8153,136.4472 C350.7123,128.0382 347.9893,119.5002 343.2353,112.4102 C336.6163,102.5372 328.7513,93.5112 322.0843,83.6662 C319.5953,79.9922 362.1773,75.3922 345.9383,75.9412 C329.2273,76.5072 312.5083,78.1042 295.8753,79.7462 C276.7733,81.6322 256.3283,81.6862 238.3483,89.2422 C220.9053,96.5722 204.7113,109.2292 191.7073,122.7972 C185.1513,129.6372 179.0643,137.3502 176.5343,146.4812 C172.8163,159.8942 177.3633,180.2752 187.4923,192.2462 Z" id="Stroke-11"></path>
                            <path d="M208.2101,184.0909 C216.0821,188.1419 225.4081,187.9659 234.2321,187.2539 C254.1381,185.6469 273.9001,181.4449 292.4041,173.9349 C299.9111,170.8879 307.2931,167.2409 313.3941,161.9109 C319.4941,156.5809 324.2561,149.3889 325.3961,141.3679 C326.4131,134.2079 324.4851,126.8469 321.0391,120.4879 C317.0791,113.1829 310.6131,105.9769 304.3981,100.4719 C298.3141,95.0819 290.7271,90.9519 282.6031,90.6589 C275.1931,90.3919 268.0781,93.2859 261.2331,96.1349 C247.1741,101.9859 233.0081,107.9059 220.2121,116.2639 C209.2031,123.4539 198.3841,131.9329 193.3051,144.4829 C191.4031,149.1819 190.2671,154.2439 190.4901,159.3089 C190.9771,170.2889 198.7571,179.2269 208.2101,184.0909 Z" id="Stroke-13"></path>
                            <path d="M234.4405,171.8282 C241.4885,172.2662 248.7595,170.9922 255.4415,168.8592 C264.8995,165.8402 273.5485,160.7332 280.7635,153.9122 C285.1905,149.7262 286.8615,144.2082 286.3445,139.1302 C285.7665,133.4122 281.7655,128.2812 276.1285,125.7642 C266.7355,121.5672 256.4255,120.3762 246.3605,122.5992 C232.7125,125.6152 217.2635,132.0452 210.6775,145.2982 C209.1825,148.3072 208.2245,151.7092 208.7525,155.0282 C209.4235,159.2562 212.4145,162.7862 215.8445,165.3482 C221.3975,169.4922 227.8205,171.4172 234.4405,171.8282 Z" id="Stroke-15"></path>
                        </g>
                    </g>
                    <g id="Map-Texture-5-Copy-2" opacity="0.8" stroke="none" stroke-width="1" fill="none" fill-rule="evenodd" mask="url(#mask-4)" stroke-linecap="round" stroke-linejoin="round">
                        <g transform="translate(743.005120, 89.890463) rotate(38.000000) translate(-743.005120, -89.890463) translate(479.005120, -80.609537)" stroke="#3697F2" stroke-width="1.5">
                            <path d="M0.987977544,292.097633 C2.28795577,293.20329 50.856557,355.926504 71.3398116,336.908905 C77.6880512,331.014906 99.8923454,341.830083 109.650013,335.11573 C123.359824,325.683472 137.649143,316.7176 152.194281,308.05327 C173.891909,295.135177 198.831652,287.946397 226.068545,286.41858 C249.18623,285.111894 272.423994,285.144059 295.593887,284.271595 C305.017424,283.917785 314.545377,283.314699 323.754861,281.815027 C341.824036,278.875989 353.513399,269.994549 358.076374,256.33265 C361.245398,246.856166 363.761821,237.134426 364.967825,227.404645 C368.564954,198.259529 383.804458,174.493937 416.554511,158.475984 C425.46641,154.117685 434.587141,149.884024 444.146419,146.47458 C460.685901,140.576403 473.278461,131.518058 481.511656,119.283462 C490.924752,105.299917 480.598369,95.3141955 513.791839,79.3994018 C546.985308,63.4846082 511.788055,17.5400441 505.538762,0.689832862" id="Stroke-5" stroke-dasharray="4.991000000000001,3.993,3.993,4.991"></path>
                            <path d="M50.4851837,266.116359 C53.9835125,275.733208 62.5034707,307.487373 98.2910743,307.103611 C107.863411,307.000964 115.610412,302.91958 123.291071,299.221409 C143.184553,289.640699 163.694157,281.00762 186.657814,276.751311 C199.168255,274.430418 212.028529,272.828279 224.852254,271.960956 C239.393814,270.973171 254.097237,271.451002 268.691012,270.764371 C284.114987,270.037586 299.585954,268.45954 313.725467,263.480461 C327.938081,258.481306 337.801279,249.876335 341.931396,238.059055 C346.009298,226.40239 349.789582,214.669433 353.220032,202.892307 C358.587617,184.457671 371.113723,169.183144 387.038951,155.149371 C401.392541,142.496891 420.189531,134.30952 437.2478,124.367425 C450.20728,116.810469 460.634389,107.61122 467.923444,96.4042789 C474.209993,86.7312148 471.348489,81.4103351 484.245497,66.5378402 C492.843502,56.6228436 487.768105,42.9151987 469.019304,25.4149055" id="Stroke-9"></path>
                            <path d="M124.952649,228.240291 C125.271131,231.452246 109.168454,269.759674 143.768347,260.163744 C159.665491,255.754832 178.430609,258.887817 195.769571,258.255891 C197.435072,258.199541 199.105795,258.247841 200.781738,258.247841 C219.15968,258.247841 237.542844,258.445066 255.910345,258.187466 C270.106262,257.990241 284.223863,256.315838 297.187622,251.840031 C313.195228,246.313697 323.705114,236.557082 328.555429,223.467761 C332.481626,212.877969 336.799398,202.332452 339.702278,191.569585 C343.91563,175.96866 354.712672,162.91154 364.956286,149.584743 C376.651341,134.366194 393.739695,123.245101 411.81482,112.755935 C419.552351,108.264028 426.402312,102.773919 433.142631,97.3562603 C440.937594,91.0893253 457.452881,57.7143664 423.677309,58.3388759" id="Stroke-11"></path>
                            <path d="M195.006944,195.081186 C201.119628,205.533653 198.700825,220.40636 201.577517,227.92929 C203.047131,231.769328 208.748402,235.685926 213.777402,237.418577 C220.828424,239.852347 228.979052,240.593761 236.770093,241.480233 C243.560546,242.253882 250.533398,242.668913 257.381176,242.431177 C266.829442,242.108823 276.329822,241.032968 284.866093,237.656313 C300.734803,231.378474 309.854751,221.091362 313.705975,207.73383 C318.130452,192.393823 322.476759,177.03367 327.568295,161.818575 C330.663866,152.554935 336.917545,143.940033 338.006727,134.229127 C339.153235,124.034691 338.277227,122.949504 337.741329,114.0213" id="Stroke-13"></path>
                            <path d="M233.329455,175.292505 C232.976531,183.264902 219.293631,214.176894 248.664339,213.257196 C269.302332,212.61095 282.160998,205.083882 284.538046,188.962281 C285.892652,179.76027 283.403835,157.222084 282.99901,147.907559" id="Stroke-15"></path>
                        </g>
                    </g>
                    <g id="Map-Texture-4-Copy-2" opacity="0.8" stroke="none" stroke-width="1" fill="none" fill-rule="evenodd" mask="url(#mask-4)" stroke-linecap="round" stroke-linejoin="round">
                        <g transform="translate(113.515985, 82.364887) rotate(-484.000000) translate(-113.515985, -82.364887) translate(4.515985, -116.135113)" stroke="#3697F2" stroke-width="1.5">
                            <path d="M215,135.503873 C206.680728,134.591113 198.198796,134.398802 189.82629,134.766202 C177.384349,135.314432 168.228122,130.256936 161.071123,120.879613 C157.714431,116.485159 154.709674,111.685991 149.687945,108.87021 C145.086171,106.292667 140.448909,104.366685 135.090032,108.026338 C131.511532,110.474717 130.367004,113.965021 129.213603,117.455326 C127.119737,123.798724 128.465371,130.248325 128.974051,136.732369 C129.473858,143.107341 128.846881,149.591385 128.379606,156.003671 C127.723054,165.025074 124.558596,173.446581 121.349776,181.847997 C117.93985,190.768939 114.636392,199.730066 111.409828,208.714155 C108.257199,217.4801 109.389898,226.134103 112.858972,234.521167 C115.698112,241.386963 118.974953,248.08054 122.032944,254.863097 C126.25025,264.217457 123.866556,273.006365 119.1524,281.358985 C111.08451,295.656029 101.21554,308.690134 89.8589788,320.754073 C85.8191188,325.045195 82.9504042,330.427038 79.8657966,335.496016 C77.8843133,338.745214 79.4576702,343.449662 83.0213827,345.054169 C90.2789349,348.320588 97.7228058,351.190904 104.986273,354.437232" id="Stroke-43" stroke-dasharray="5.049,4.039,4.039,5.049" transform="translate(147.000000, 230.218616) rotate(1.000000) translate(-147.000000, -230.218616) "></path>
                            <path d="M26.0386162,-4.54747351e-13 C24.318781,2.97898305 22.9343137,6.22435593 20.8217828,8.89111864 C11.2709649,20.9445424 6.30924049,34.7452542 4.33429645,49.8349492 C3.14761019,58.9122542 1.37904637,67.9179492 0.347145276,77.0067119 C-0.13727496,81.2689492 -0.55290179,85.8233559 2.30489097,89.7132203 C2.88676853,90.5095254 3.27659783,91.6151864 4.05339004,92.0734915 C12.4318537,97.020322 19.4831778,103.591271 26.8039428,109.904424 C36.2143075,118.019288 47.2011878,120.124627 59.0479857,115.802237 C65.4257077,113.476339 71.6973732,110.858271 77.9690388,108.254525 C82.5323347,106.361153 86.9523111,103.96078 92.0802863,104.192797 C94.381999,104.295915 97.0305451,104.224305 98.8822343,105.315644 C102.281775,107.317864 105.156766,110.276797 106.469574,114.138017 C107.876972,118.288542 108.971934,122.562237 109.935042,126.844525 C111.54882,134.034186 113.125336,141.241034 114.398014,148.499441 C116.453217,160.234915 114.954094,171.706864 110.972675,182.855136 C108.011693,191.150458 104.437302,199.248136 101.800221,207.640847 C98.0767782,219.493763 99.7908806,231.086017 104.769803,242.346 C106.495371,246.253051 108.120616,250.260356 109.215577,254.376508 C112.162228,265.456034 109.80892,275.690559 103.79523,285.306373 C93.8087206,301.278305 80.4169375,313.749932 63.0638007,320.730492 C53.5273148,324.568797 42.9273974,323.122271 34.0014529,316.846356 C30.0372329,314.059288 26.7265502,310.35561 22.9056498,307.342254 C20.1195168,305.145254 17.0410119,303.300576 13.9768389,301.487407 C12.0964858,300.373153 10.4769744,301.026237 9.16703325,302.810763 C6.30350771,306.712085 7.49019397,310.756627 8.48196558,314.858458 C10.0298172,321.263271 11.7697171,327.636576 12.8990755,334.118729 C14.4813239,343.218949 14.3466035,352.387915 13.392095,361.611305 C12.3802586,371.373203 13.5784104,381.378576 20.4004232,388.559644 C29.2547079,397.886153 38.7453316,399.765203 51.0851489,390.392864 C56.6201517,386.187915 61.4614877,381.074949 66.6295923,376.383051 C74.050681,369.643102 82.7358486,366.354763 92.7624876,367.497661" id="Stroke-77"></path>
                            <path d="M150.394249,278.273507 C141.648739,281.96767 135.702482,288.692134 130.405743,296.160582 C125.241208,303.445895 120.525013,310.911481 117.547573,319.475874 C115.210073,326.206061 115.914124,332.790972 119.659727,339.230607" id="Stroke-87" transform="translate(133.297253, 308.752057) rotate(-351.000000) translate(-133.297253, -308.752057) "></path>
                            <path d="M45.2795887,0 C40.0901249,6.16330117 34.894895,12.3208956 29.7140802,18.4899035 C23.7721441,25.5662863 19.5773275,33.564311 17.2795482,42.4640037 C12.8021941,59.8011416 20.269256,76.1025026 36.6362484,84.9051804 C41.6037185,87.5759442 46.4818145,90.2952155 52.1642775,91.58209 C55.543195,92.3467959 58.5242537,92.0015369 61.5254936,91.0370944 C69.9093608,88.3377967 75.7619228,83.2759003 79.0053377,74.7071997 C82.0728875,66.6064534 83.4798088,58.4058387 82.8541901,49.9997808 C82.2516357,41.8619405 80.9196733,33.6727394 76.7363888,26.3794997 C71.6593633,17.5311678 66.3834084,8.78841093 61.1939446,0" id="Stroke-141"></path>
                            <path d="M208.21399,186.666853 C191.113052,169.101035 174.292392,180.781435 167.443822,186.547069 C163.63653,189.750199 161.127761,194.843607 158.835412,199.488863 C155.50937,206.234109 153.211326,213.44187 153.629929,221.152364 C154.193761,231.597728 175.053707,238.558989 185.478911,236.467618" id="Stroke-153" transform="translate(180.897371, 207.106370) rotate(4.000000) translate(-180.897371, -207.106370) "></path>
                            <path d="M51.8446689,17.9136598 C42.4502865,21.182336 37.3260779,28.3728532 37.448899,38.1075757 C37.5460133,45.6945555 43.7013474,52.7624261 51.159156,53.8519848 C55.317934,54.4595136 60.9591335,50.4863321 63.2070444,46.0054505 C67.2515703,37.9392931 65.3806915,30.566232 61.076242,23.4042372 C59.0968236,20.1098907 55.6064207,19.0117752 52.1874253,17.9136598" id="Stroke-255"></path>
                        </g>
                    </g>
                </g>
            </g>
        </g>
    </g>
</svg>
