<?xml version="1.0" encoding="UTF-8"?>
<svg preserveAspectRatio="none" width="376px" height="73px" viewBox="0 0 376 73" version="1.1" xmlns="http://www.w3.org/2000/svg" xmlns:xlink="http://www.w3.org/1999/xlink">
    <!-- Generator: Sketch 51.2 (57519) - http://www.bohemiancoding.com/sketch -->
    <title>Group</title>
    <desc>Created with Sketch.</desc>
    <defs>
        <rect id="path-1" x="0" y="0" width="376" height="76"></rect>
        <linearGradient x1="50%" y1="-70.4592529%" x2="50%" y2="100%" id="linearGradient-3">
            <stop stop-color="#326BE6" offset="0%"></stop>
            <stop stop-color="#003C5E" offset="100%"></stop>
        </linearGradient>
        <path d="M165.866605,18.0555588 C165.866605,18.0555588 261.303133,44.956092 375.826864,23.8839678 C376.21642,24.3323299 375.826864,912 375.826864,912 L0.677351554,912 C0.677351554,912 -0.297660501,3.70886673 0.0918954311,4.15722888 C0.0918954311,4.15722888 56.0172855,-11.5348485 165.866605,18.0555588 Z" id="path-4"></path>
    </defs>
    <g id="1.-Landing-Page" stroke="none" stroke-width="1" fill="none" fill-rule="evenodd">
        <g id="Group" transform="translate(0.000000, -3.000000)">
            <mask id="mask-2" fill="white">
                <use xlink:href="#path-1"></use>
            </mask>
            <g id="Mask" fill-rule="nonzero"></g>
            <g mask="url(#mask-2)">
                <g transform="translate(0.000000, 3.000000)">
                    <mask id="mask-5" fill="white">
                        <use xlink:href="#path-4"></use>
                    </mask>
                    <use id="Mask" stroke="none" fill="url(#linearGradient-3)" fill-rule="evenodd" xlink:href="#path-4"></use>
                    <g id="Group" stroke="none" stroke-width="1" fill="none" fill-rule="evenodd" mask="url(#mask-5)" stroke-linecap="round" stroke-linejoin="round">
                        <g transform="translate(149.000000, 38.500000) rotate(-180.000000) translate(-149.000000, -38.500000) translate(-89.000000, -24.000000)" stroke="#016EFF">
                            <path d="M217.016956,79.0691685 C217.992636,79.8990032 235.519638,90.2775814 249.625853,99.0406365 C255.695443,102.809595 271.055543,102.734156 278.379019,97.6947954 C288.668718,90.6155505 299.393359,83.886345 310.310002,77.3834581 C326.594842,67.6879706 345.313005,62.2925359 365.75526,61.1458552 C383.105903,60.1651414 400.54667,60.189282 417.936497,59.5344669 C425.009196,59.2689198 432.160263,58.8162827 439.072308,57.690725 C452.633865,55.4848733 461.407146,48.8190371 464.831822,38.5652971 C467.210286,31.4528588 468.547515,28.0826095 469.452663,20.7800636" id="Stroke-5" stroke-width="1.5" stroke-dasharray="4.991000000000001,3.993,3.993,4.991" transform="translate(343.234810, 61.236237) rotate(-171.000000) translate(-343.234810, -61.236237) "></path>
                            <path d="M230.371947,88.5415839 C232.997567,95.7593702 245.703116,102.270988 257.126522,101.189073 C264.227452,100.51702 270.1253,98.0488086 275.889907,95.2732006 C290.820671,88.0825375 306.213858,81.6031051 323.448897,78.4085942 C332.838427,76.6666817 342.49052,75.4642196 352.11518,74.8132627 C363.029137,74.071895 374.064579,74.4305241 385.017724,73.9151832 C396.593965,73.3697054 408.205475,72.1853254 418.817682,68.4483505 C429.484753,64.696307 438.341026,53.5511712 441.440825,44.681883" id="Stroke-9" stroke-width="1.5" transform="translate(335.906386, 72.994594) rotate(-171.000000) translate(-335.906386, -72.994594) "></path>
                            <path d="M251.292973,101.2797 C260.248914,99.8612183 287.185115,98.7577267 300.198622,98.2834438 C301.44864,98.2411511 302.702576,98.277402 303.960431,98.277402 C317.753729,98.277402 331.550946,98.4254266 345.336407,98.2320883 C355.990947,98.0840637 363.77199,98.6994738 375.786266,94.5517641 C383.795784,91.7866243 387.817978,85.9686205 387.852848,77.0977528" id="Stroke-11" stroke-width="1.5" transform="translate(319.572911, 89.188726) rotate(-171.000000) translate(-319.572911, -89.188726) "></path>
                            <path d="M104.816173,76.5793324 C105.294061,69.1898218 105.468373,67.1974324 104.202836,58.4906458 C103.269594,52.0700145 103.760067,43.3315833 97.7448391,39.2874685 C93.5096814,36.4405555 87.8473213,37.5133922 82.9453866,38.9316044 C71.7997223,42.152362 60.7417128,46.6467386 49.1405424,46.5905495 C34.6812211,46.5216243 17.0615787,29.0523675 4.24372752,39.1836318" id="Stroke-1" stroke-width="1" transform="translate(54.708842, 56.301799) rotate(-7.000000) translate(-54.708842, -56.301799) "></path>
                            <path d="M176.753086,76.704 C175.067414,68.9791264 168.893359,64.5506783 161.26588,63.5917181 C154.083418,62.6881978 138.668438,64.1634335 136.065958,70.9624849" id="Stroke-3" stroke-width="1" transform="translate(156.409522, 70.027803) rotate(-3.000000) translate(-156.409522, -70.027803) "></path>
                            <path d="M195.232426,80.9972591 C196.267054,76.2743803 195.675196,71.266061 193.9191,66.7611957 C189.297362,54.9127934 178.309776,47.9768143 166.673394,44.2638404 C159.016696,41.8207395 150.99889,40.5119087 142.961605,40.4062733 C139.358013,40.3590745 135.660023,40.5718438 132.35161,42.0005446 C127.983097,43.8877482 124.720385,47.7325791 122.457089,51.9182904 C118.272876,59.6573986 118.104239,59.669465 116.411075,68.3038525" id="Stroke-9" stroke-width="1" transform="translate(156.076545, 60.698842) rotate(-3.000000) translate(-156.076545, -60.698842) "></path>
                            <path d="M6.37828252,60.6521339 C15.7656035,54.7013366 27.5922795,54.6683723 38.7057288,54.8272001 C50.5548803,54.9972657 62.448234,51.7585276 74.2853985,53.017912 C78.5250513,53.4689229 82.7677009,54.7410435 86.1600225,57.3212457 C89.8280451,60.1119696 97.2765782,65.6992866 97.2569824,75.8900363" id="Stroke-11" stroke-width="1" transform="translate(51.817652, 64.308198) rotate(-7.000000) translate(-51.817652, -64.308198) "></path>
                            <path d="M6.8460288,78.7477071 C12.4199848,70.8138101 19.7927402,67.2873839 28.0270615,66.0190092 C30.4416932,65.6436662 32.8548266,65.1941537 35.2784486,65.0076059 C45.5715374,64.2202097 54.6329359,63.7103878 66.3577482,65.3305058 C69.8130634,65.8079564 79.6878547,67.6757085 84.6443428,75.001121" id="Stroke-13" stroke-width="1" transform="translate(45.745186, 71.506299) rotate(-7.000000) translate(-45.745186, -71.506299) "></path>
                        </g>
                    </g>
                </g>
            </g>
        </g>
    </g>
</svg>
